<?xml version="1.0" encoding="UTF-8" standalone="no"?><svg xmlns="http://www.w3.org/2000/svg" xmlns:xlink="http://www.w3.org/1999/xlink" contentStyleType="text/css" height="604px" preserveAspectRatio="none" style="width:526px;height:604px;background:#FFFFFF;" version="1.1" viewBox="0 0 526 604" width="526px" zoomAndPan="magnify"><defs/><g><!--MD5=[c018863fe2304e0ca952616611326b6e]
cluster Host--><g id="cluster_Host"><polygon points="121,361.42,131,351.42,287,351.42,287,577.42,277,587.42,121,587.42,121,361.42" style="stroke:#181818;stroke-width:1.0;fill:none;"/><line style="stroke:#181818;stroke-width:1.0;fill:none;" x1="277" x2="287" y1="361.42" y2="351.42"/><line style="stroke:#181818;stroke-width:1.0;fill:none;" x1="121" x2="277" y1="361.42" y2="361.42"/><line style="stroke:#181818;stroke-width:1.0;fill:none;" x1="277" x2="277" y1="361.42" y2="587.42"/><text fill="#000000" font-family="sans-serif" font-size="14" font-weight="bold" lengthAdjust="spacing" textLength="36" x="182" y="377.4151">Host</text></g><!--MD5=[373ce27cdb065709cb1ab86f401dd752]
cluster POS--><g id="cluster_POS"><polygon points="286,97.42,296,87.42,509,87.42,509,301.42,499,311.42,286,311.42,286,97.42" style="stroke:#181818;stroke-width:1.0;fill:none;"/><line style="stroke:#181818;stroke-width:1.0;fill:none;" x1="499" x2="509" y1="97.42" y2="87.42"/><line style="stroke:#181818;stroke-width:1.0;fill:none;" x1="286" x2="499" y1="97.42" y2="97.42"/><line style="stroke:#181818;stroke-width:1.0;fill:none;" x1="499" x2="499" y1="97.42" y2="311.42"/><text fill="#000000" font-family="sans-serif" font-size="14" font-weight="bold" lengthAdjust="spacing" textLength="32" x="377.5" y="113.4151">POS</text></g><!--MD5=[bf651fdbd8dc621b8c9f8c9bb2faf726]
cluster Terminal--><g id="cluster_Terminal"><polygon points="16,97.42,26,87.42,246,87.42,246,195.42,236,205.42,16,205.42,16,97.42" style="stroke:#181818;stroke-width:1.0;fill:none;"/><line style="stroke:#181818;stroke-width:1.0;fill:none;" x1="236" x2="246" y1="97.42" y2="87.42"/><line style="stroke:#181818;stroke-width:1.0;fill:none;" x1="16" x2="236" y1="97.42" y2="97.42"/><line style="stroke:#181818;stroke-width:1.0;fill:none;" x1="236" x2="236" y1="97.42" y2="205.42"/><text fill="#000000" font-family="sans-serif" font-size="14" font-weight="bold" lengthAdjust="spacing" textLength="68" x="93" y="113.4151">Terminal</text></g><!--MD5=[7f53430215c760fe20a553af0a572442]
entity ECR--><g id="elem_ECR"><ellipse cx="213" cy="428.42" fill="#F1F1F1" rx="8" ry="8" style="stroke:#181818;stroke-width:0.5;"/><text fill="#000000" font-family="sans-serif" font-size="14" lengthAdjust="spacing" textLength="29" x="198.5" y="458.4151">ECR</text></g><!--MD5=[91973c96897d1b47acf069d2375b565a]
entity FE--><g id="elem_FE"><rect fill="#F1F1F1" height="46.2969" rx="2.5" ry="2.5" style="stroke:#181818;stroke-width:0.5;" width="109" x="153.5" y="517.42"/><rect fill="#F1F1F1" height="10" style="stroke:#181818;stroke-width:0.5;" width="15" x="242.5" y="522.42"/><rect fill="#F1F1F1" height="2" style="stroke:#181818;stroke-width:0.5;" width="4" x="240.5" y="524.42"/><rect fill="#F1F1F1" height="2" style="stroke:#181818;stroke-width:0.5;" width="4" x="240.5" y="528.42"/><text fill="#000000" font-family="sans-serif" font-size="14" lengthAdjust="spacing" textLength="69" x="168.5" y="550.4151">Integra FE</text></g><!--MD5=[53ccf4b3ee6cf4337a0ab93ac09644f3]
entity main--><g id="elem_main"><rect fill="#F1F1F1" height="46.2969" rx="2.5" ry="2.5" style="stroke:#181818;stroke-width:0.5;" width="133" x="329.5" y="135.42"/><rect fill="#F1F1F1" height="10" style="stroke:#181818;stroke-width:0.5;" width="15" x="442.5" y="140.42"/><rect fill="#F1F1F1" height="2" style="stroke:#181818;stroke-width:0.5;" width="4" x="440.5" y="142.42"/><rect fill="#F1F1F1" height="2" style="stroke:#181818;stroke-width:0.5;" width="4" x="440.5" y="146.42"/><text fill="#000000" font-family="sans-serif" font-size="14" lengthAdjust="spacing" textLength="93" x="344.5" y="168.4151">POS Software</text></g><!--MD5=[97db3ed258f199931cb7ec9b00ff5adb]
entity SDK--><g id="elem_SDK"><ellipse cx="327" cy="264.42" fill="#F1F1F1" rx="8" ry="8" style="stroke:#181818;stroke-width:0.5;"/><text fill="#000000" font-family="sans-serif" font-size="14" lengthAdjust="spacing" textLength="29" x="312.5" y="294.4151">SDK</text></g><!--MD5=[c4490688c0a4e188eebdf8720832e4d5]
entity Integra API--><g id="elem_Integra API"><rect fill="#F1F1F1" height="46.2969" rx="2.5" ry="2.5" style="stroke:#181818;stroke-width:0.5;" width="113" x="371.5" y="241.42"/><rect fill="#F1F1F1" height="10" style="stroke:#181818;stroke-width:0.5;" width="15" x="464.5" y="246.42"/><rect fill="#F1F1F1" height="2" style="stroke:#181818;stroke-width:0.5;" width="4" x="462.5" y="248.42"/><rect fill="#F1F1F1" height="2" style="stroke:#181818;stroke-width:0.5;" width="4" x="462.5" y="252.42"/><text fill="#000000" font-family="sans-serif" font-size="14" lengthAdjust="spacing" textLength="73" x="386.5" y="274.4151">Integra API</text></g><!--MD5=[189e9a0a5d8ad9751f403cc8629a3d48]
entity Comm Channel--><g id="elem_Comm Channel"><ellipse cx="213" cy="158.42" fill="#F1F1F1" rx="8" ry="8" style="stroke:#181818;stroke-width:0.5;"/><text fill="#000000" font-family="sans-serif" font-size="14" lengthAdjust="spacing" textLength="106" x="160" y="188.4151">Comm Channel</text></g><!--MD5=[1d74d4b68fdad07872ee8085a8f0445e]
entity Integra TE--><g id="elem_Integra TE"><rect fill="#F1F1F1" height="46.2969" rx="2.5" ry="2.5" style="stroke:#181818;stroke-width:0.5;" width="110" x="59" y="135.42"/><rect fill="#F1F1F1" height="10" style="stroke:#181818;stroke-width:0.5;" width="15" x="149" y="140.42"/><rect fill="#F1F1F1" height="2" style="stroke:#181818;stroke-width:0.5;" width="4" x="147" y="142.42"/><rect fill="#F1F1F1" height="2" style="stroke:#181818;stroke-width:0.5;" width="4" x="147" y="146.42"/><text fill="#000000" font-family="sans-serif" font-size="14" lengthAdjust="spacing" textLength="70" x="74" y="168.4151">Integra TE</text></g><!--MD5=[ea565ad39b0ec18b69364ae30b290905]
link ECR to FE--><g id="link_ECR_FE"><path d="M212.62,437.69 C211.87,454.38 210.13,492.58 209.01,517.13 " fill="none" id="ECR-FE" style="stroke:#181818;stroke-width:1.0;"/></g><!--MD5=[f89ce75c08305ef137b287e98b3f2f4f]
link SDK to Integra API--><g id="link_SDK_Integra API"><path d="M336.07,264.42 C347.8,264.42 359.53,264.42 371.26,264.42 " fill="none" id="SDK-Integra API" style="stroke:#181818;stroke-width:1.0;"/></g><!--MD5=[ea0caca62070046096ae5a989a59dd61]
link main to SDK--><g id="link_main_SDK"><path d="M381.37,181.48 C367.34,202.62 346.66,233.79 335.27,250.95 " fill="none" id="main-to-SDK" style="stroke:#181818;stroke-width:1.0;stroke-dasharray:7.0,7.0;"/><polygon fill="#181818" points="332.32,255.4,340.6279,250.1105,335.0836,251.2332,333.961,245.6888,332.32,255.4" style="stroke:#181818;stroke-width:1.0;"/></g><!--MD5=[134744d3646e512c468c79e97222b20c]
link SDK to ECR--><g id="link_SDK_ECR"><path d="M315.22,282.16 C293.26,313.36 246.35,380.03 224.56,410.99 " fill="none" id="SDK-ECR" style="stroke:#181818;stroke-width:1.0;"/><path d="M227.3465,421.7246 A9,9 0 0 0 213.5192 411.9827" fill="none" style="stroke:#181818;stroke-width:1.5;"/><path d="M312.5015,271.3325 A9,9 0 0 0 326.3368 281.0631" fill="none" style="stroke:#181818;stroke-width:1.5;"/></g><!--MD5=[5c0b2009649aea3d497d3967398b20ea]
link Comm Channel to Integra TE--><g id="link_Comm Channel_Integra TE"><path d="M203.78,158.42 C192.29,158.42 180.79,158.42 169.3,158.42 " fill="none" id="Comm Channel-Integra TE" style="stroke:#181818;stroke-width:1.0;"/></g><!--MD5=[c017b39dfac306454e536527a356f8bd]
link Comm Channel to ECR--><g id="link_Comm Channel_ECR"><path d="M213,177.63 C213,226.49 213,360.12 213,409.11 " fill="none" id="Comm Channel-ECR" style="stroke:#181818;stroke-width:1.0;"/><path d="M221.4572,416.0918 A9,9 0 0 0 204.5428 416.0918" fill="none" style="stroke:#181818;stroke-width:1.5;"/><path d="M204.5428,170.5182 A9,9 0 0 0 221.4572 170.5182" fill="none" style="stroke:#181818;stroke-width:1.5;"/></g><!--MD5=[eb8f653f36d5c383d40d1048a2bd6c7e]
link Integra TE to Host--><!--MD5=[12873e60103dc51030f71586ab0cf427]
link Terminal to POS--><!--MD5=[f43a796a53511118ed5f02d5db619878]
@startuml

node Host {
  ()ECR
  [Integra FE] as FE

  ()ECR -d- FE
}

node POS {
  [POS Software] as main
  SDK - [Integra API]

  main .down.> SDK
  SDK )- -( ECR
}

node Terminal {
  ()"Comm Channel" - [Integra TE]
  ()"Comm Channel" )- -( ECR
}

[Integra TE] -[hidden]d- Host
Terminal -[hidden]r- POS
'POS -[hidden]d- Host

@enduml

@startuml

node Host {
  ()ECR
  [Integra FE] as FE

  ()ECR -d- FE
}

node POS {
  [POS Software] as main
  SDK - [Integra API]

  main .down.> SDK
  SDK )- -( ECR
}

node Terminal {
  ()"Comm Channel" - [Integra TE]
  ()"Comm Channel" )- -( ECR
}

[Integra TE] -[hidden]d- Host
Terminal -[hidden]r- POS

@enduml

PlantUML version 1.2022.6(Tue Jun 21 17:34:49 UTC 2022)
(GPL source distribution)
Java Runtime: OpenJDK Runtime Environment
JVM: OpenJDK 64-Bit Server VM
Default Encoding: ISO-8859-1
Language: en
Country: US
--></g></svg>