<?xml version="1.0" encoding="UTF-8" standalone="no"?><svg xmlns="http://www.w3.org/2000/svg" xmlns:xlink="http://www.w3.org/1999/xlink" contentStyleType="text/css" height="692px" preserveAspectRatio="none" style="width:841px;height:692px;background:#FFFFFF;" version="1.1" viewBox="0 0 841 692" width="841px" zoomAndPan="magnify"><defs/><g><rect fill="#FFFFFF" height="271.8672" style="stroke:#181818;stroke-width:1.0;" width="10" x="36.5" y="67.4297"/><rect fill="#FFFFFF" height="213.6016" style="stroke:#181818;stroke-width:1.0;" width="10" x="36.5" y="418.5625"/><rect fill="#FFFFFF" height="227.9297" style="stroke:#181818;stroke-width:1.0;" width="10" x="368.5" y="67.4297"/><rect fill="#FFFFFF" height="169.6641" style="stroke:#181818;stroke-width:1.0;" width="10" x="368.5" y="418.5625"/><rect fill="#FFFFFF" height="169.6641" style="stroke:#181818;stroke-width:1.0;" width="10" x="548.5" y="96.5625"/><rect fill="#FFFFFF" height="111.3984" style="stroke:#181818;stroke-width:1.0;" width="10" x="548.5" y="447.6953"/><rect fill="#FFFFFF" height="87.2656" style="stroke:#181818;stroke-width:1.0;" width="10" x="681.5" y="149.8281"/><rect height="235.7344" style="stroke:#000000;stroke-width:1.5;fill:none;" width="814" x="10" y="111.5625"/><rect height="44.1328" style="stroke:#000000;stroke-width:1.5;fill:none;" width="174" x="640" y="164.8281"/><rect height="177.4688" style="stroke:#000000;stroke-width:1.5;fill:none;" width="694.5" x="10" y="462.6953"/><rect height="44.1328" style="stroke:#000000;stroke-width:1.5;fill:none;" width="174" x="520.5" y="486.8281"/><line style="stroke:#181818;stroke-width:0.5;fill:none;stroke-dasharray:5.0,5.0;" x1="41" x2="41" y1="36.2969" y2="657.1641"/><line style="stroke:#181818;stroke-width:0.5;fill:none;stroke-dasharray:5.0,5.0;" x1="373" x2="373" y1="36.2969" y2="657.1641"/><line style="stroke:#181818;stroke-width:0.5;fill:none;stroke-dasharray:5.0,5.0;" x1="553.5" x2="553.5" y1="36.2969" y2="657.1641"/><line style="stroke:#181818;stroke-width:0.5;fill:none;stroke-dasharray:5.0,5.0;" x1="686" x2="686" y1="36.2969" y2="657.1641"/><rect fill="#E2E2F0" height="30.2969" rx="2.5" ry="2.5" style="stroke:#181818;stroke-width:0.5;" width="43" x="20" y="5"/><text fill="#000000" font-family="sans-serif" font-size="14" lengthAdjust="spacing" textLength="29" x="27" y="24.9951">POS</text><rect fill="#E2E2F0" height="30.2969" rx="2.5" ry="2.5" style="stroke:#181818;stroke-width:0.5;" width="43" x="20" y="656.1641"/><text fill="#000000" font-family="sans-serif" font-size="14" lengthAdjust="spacing" textLength="29" x="27" y="676.1592">POS</text><rect fill="#E2E2F0" height="30.2969" rx="2.5" ry="2.5" style="stroke:#181818;stroke-width:0.5;" width="43" x="352" y="5"/><text fill="#000000" font-family="sans-serif" font-size="14" lengthAdjust="spacing" textLength="29" x="359" y="24.9951">SDK</text><rect fill="#E2E2F0" height="30.2969" rx="2.5" ry="2.5" style="stroke:#181818;stroke-width:0.5;" width="43" x="352" y="656.1641"/><text fill="#000000" font-family="sans-serif" font-size="14" lengthAdjust="spacing" textLength="29" x="359" y="676.1592">SDK</text><rect fill="#E2E2F0" height="30.2969" rx="2.5" ry="2.5" style="stroke:#181818;stroke-width:0.5;" width="46" x="530.5" y="5"/><text fill="#000000" font-family="sans-serif" font-size="14" lengthAdjust="spacing" textLength="32" x="537.5" y="24.9951">Host</text><rect fill="#E2E2F0" height="30.2969" rx="2.5" ry="2.5" style="stroke:#181818;stroke-width:0.5;" width="46" x="530.5" y="656.1641"/><text fill="#000000" font-family="sans-serif" font-size="14" lengthAdjust="spacing" textLength="32" x="537.5" y="676.1592">Host</text><rect fill="#E2E2F0" height="30.2969" rx="2.5" ry="2.5" style="stroke:#181818;stroke-width:0.5;" width="73" x="650" y="5"/><text fill="#000000" font-family="sans-serif" font-size="14" lengthAdjust="spacing" textLength="59" x="657" y="24.9951">Terminal</text><rect fill="#E2E2F0" height="30.2969" rx="2.5" ry="2.5" style="stroke:#181818;stroke-width:0.5;" width="73" x="650" y="656.1641"/><text fill="#000000" font-family="sans-serif" font-size="14" lengthAdjust="spacing" textLength="59" x="657" y="676.1592">Terminal</text><rect fill="#FFFFFF" height="271.8672" style="stroke:#181818;stroke-width:1.0;" width="10" x="36.5" y="67.4297"/><rect fill="#FFFFFF" height="213.6016" style="stroke:#181818;stroke-width:1.0;" width="10" x="36.5" y="418.5625"/><rect fill="#FFFFFF" height="227.9297" style="stroke:#181818;stroke-width:1.0;" width="10" x="368.5" y="67.4297"/><rect fill="#FFFFFF" height="169.6641" style="stroke:#181818;stroke-width:1.0;" width="10" x="368.5" y="418.5625"/><rect fill="#FFFFFF" height="169.6641" style="stroke:#181818;stroke-width:1.0;" width="10" x="548.5" y="96.5625"/><rect fill="#FFFFFF" height="111.3984" style="stroke:#181818;stroke-width:1.0;" width="10" x="548.5" y="447.6953"/><rect fill="#FFFFFF" height="87.2656" style="stroke:#181818;stroke-width:1.0;" width="10" x="681.5" y="149.8281"/><polygon fill="#181818" points="356.5,63.4297,366.5,67.4297,356.5,71.4297,360.5,67.4297" style="stroke:#181818;stroke-width:1.0;"/><line style="stroke:#181818;stroke-width:1.0;stroke-dasharray:2.0,2.0;" x1="46.5" x2="362.5" y1="67.4297" y2="67.4297"/><text fill="#000000" font-family="sans-serif" font-size="13" lengthAdjust="spacing" textLength="89" x="53.5" y="62.3638">Send Request</text><polygon fill="#181818" points="536.5,92.5625,546.5,96.5625,536.5,100.5625,540.5,96.5625" style="stroke:#181818;stroke-width:1.0;"/><line style="stroke:#181818;stroke-width:1.0;stroke-dasharray:2.0,2.0;" x1="378.5" x2="542.5" y1="96.5625" y2="96.5625"/><text fill="#000000" font-family="sans-serif" font-size="13" lengthAdjust="spacing" textLength="151" x="385.5" y="91.4966">Serialize, Send Request</text><path d="M10,111.5625 L187,111.5625 L187,118.6953 L177,128.6953 L10,128.6953 L10,111.5625 " fill="#EEEEEE" style="stroke:#000000;stroke-width:1.5;"/><rect fill="none" height="235.7344" style="stroke:#000000;stroke-width:1.5;" width="814" x="10" y="111.5625"/><text fill="#000000" font-family="sans-serif" font-size="13" font-weight="bold" lengthAdjust="spacing" textLength="132" x="25" y="124.6294">Wait for response</text><polygon fill="#181818" points="669.5,145.8281,679.5,149.8281,669.5,153.8281,673.5,149.8281" style="stroke:#181818;stroke-width:1.0;"/><line style="stroke:#181818;stroke-width:1.0;stroke-dasharray:2.0,2.0;" x1="558.5" x2="675.5" y1="149.8281" y2="149.8281"/><text fill="#000000" font-family="sans-serif" font-size="13" lengthAdjust="spacing" textLength="90" x="565.5" y="144.7622">Relay Request</text><path d="M640,164.8281 L809,164.8281 L809,171.9609 L799,181.9609 L640,181.9609 L640,164.8281 " fill="#EEEEEE" style="stroke:#000000;stroke-width:1.5;"/><rect fill="none" height="44.1328" style="stroke:#000000;stroke-width:1.5;" width="174" x="640" y="164.8281"/><text fill="#000000" font-family="sans-serif" font-size="13" font-weight="bold" lengthAdjust="spacing" textLength="124" x="655" y="177.895">Process Request</text><line style="stroke:#181818;stroke-width:1.0;stroke-dasharray:2.0,2.0;" x1="691.5" x2="733.5" y1="187.9609" y2="187.9609"/><line style="stroke:#181818;stroke-width:1.0;stroke-dasharray:2.0,2.0;" x1="733.5" x2="733.5" y1="187.9609" y2="200.9609"/><line style="stroke:#181818;stroke-width:1.0;stroke-dasharray:2.0,2.0;" x1="692.5" x2="733.5" y1="200.9609" y2="200.9609"/><polygon fill="#181818" points="702.5,196.9609,692.5,200.9609,702.5,204.9609,698.5,200.9609" style="stroke:#181818;stroke-width:1.0;"/><polygon fill="#181818" points="569.5,233.0938,559.5,237.0938,569.5,241.0938,565.5,237.0938" style="stroke:#181818;stroke-width:1.0;"/><line style="stroke:#181818;stroke-width:1.0;stroke-dasharray:2.0,2.0;" x1="563.5" x2="685.5" y1="237.0938" y2="237.0938"/><text fill="#000000" font-family="sans-serif" font-size="13" lengthAdjust="spacing" textLength="99" x="575.5" y="232.0278">Send Response</text><polygon fill="#181818" points="389.5,262.2266,379.5,266.2266,389.5,270.2266,385.5,266.2266" style="stroke:#181818;stroke-width:1.0;"/><line style="stroke:#181818;stroke-width:1.0;stroke-dasharray:2.0,2.0;" x1="383.5" x2="552.5" y1="266.2266" y2="266.2266"/><text fill="#000000" font-family="sans-serif" font-size="13" lengthAdjust="spacing" textLength="100" x="395.5" y="261.1606">Relay Response</text><polygon fill="#181818" points="57.5,291.3594,47.5,295.3594,57.5,299.3594,53.5,295.3594" style="stroke:#181818;stroke-width:1.0;"/><line style="stroke:#181818;stroke-width:1.0;stroke-dasharray:2.0,2.0;" x1="51.5" x2="372.5" y1="295.3594" y2="295.3594"/><text fill="#000000" font-family="sans-serif" font-size="13" lengthAdjust="spacing" textLength="147" x="63.5" y="290.2935">Parse, call onResponse</text><line style="stroke:#000000;stroke-width:1.0;stroke-dasharray:2.0,2.0;" x1="10" x2="824" y1="304.3594" y2="304.3594"/><text fill="#000000" font-family="sans-serif" font-size="11" font-weight="bold" lengthAdjust="spacing" textLength="118" x="15" y="314.5698">[Request Timeout]</text><polygon fill="#181818" points="52.5,335.2969,42.5,339.2969,52.5,343.2969,48.5,339.2969" style="stroke:#181818;stroke-width:1.0;"/><line style="stroke:#181818;stroke-width:1.0;stroke-dasharray:2.0,2.0;" x1="46.5" x2="372.5" y1="339.2969" y2="339.2969"/><text fill="#000000" font-family="sans-serif" font-size="13" lengthAdjust="spacing" textLength="303" x="58.5" y="334.231">call onChannelStatusChanged, DISCONNECTED</text><rect fill="#EEEEEE" height="3" style="stroke:#EEEEEE;stroke-width:1.0;" width="834" x="0" y="374.8633"/><line style="stroke:#000000;stroke-width:1.0;" x1="0" x2="834" y1="374.8633" y2="374.8633"/><line style="stroke:#000000;stroke-width:1.0;" x1="0" x2="834" y1="377.8633" y2="377.8633"/><rect fill="#EEEEEE" height="23.1328" style="stroke:#000000;stroke-width:2.0;" width="279" x="277.5" y="364.2969"/><text fill="#000000" font-family="sans-serif" font-size="13" font-weight="bold" lengthAdjust="spacing" textLength="260" x="283.5" y="380.3638">Host to Host No Terminal Requests</text><polygon fill="#181818" points="356.5,414.5625,366.5,418.5625,356.5,422.5625,360.5,418.5625" style="stroke:#181818;stroke-width:1.0;"/><line style="stroke:#181818;stroke-width:1.0;stroke-dasharray:2.0,2.0;" x1="46.5" x2="362.5" y1="418.5625" y2="418.5625"/><text fill="#000000" font-family="sans-serif" font-size="13" lengthAdjust="spacing" textLength="89" x="53.5" y="413.4966">Send Request</text><polygon fill="#181818" points="536.5,443.6953,546.5,447.6953,536.5,451.6953,540.5,447.6953" style="stroke:#181818;stroke-width:1.0;"/><line style="stroke:#181818;stroke-width:1.0;stroke-dasharray:2.0,2.0;" x1="378.5" x2="542.5" y1="447.6953" y2="447.6953"/><text fill="#000000" font-family="sans-serif" font-size="13" lengthAdjust="spacing" textLength="151" x="385.5" y="442.6294">Serialize, Send Request</text><path d="M10,462.6953 L187,462.6953 L187,469.8281 L177,479.8281 L10,479.8281 L10,462.6953 " fill="#EEEEEE" style="stroke:#000000;stroke-width:1.5;"/><rect fill="none" height="177.4688" style="stroke:#000000;stroke-width:1.5;" width="694.5" x="10" y="462.6953"/><text fill="#000000" font-family="sans-serif" font-size="13" font-weight="bold" lengthAdjust="spacing" textLength="132" x="25" y="475.7622">Wait for response</text><path d="M520.5,486.8281 L689.5,486.8281 L689.5,493.9609 L679.5,503.9609 L520.5,503.9609 L520.5,486.8281 " fill="#EEEEEE" style="stroke:#000000;stroke-width:1.5;"/><rect fill="none" height="44.1328" style="stroke:#000000;stroke-width:1.5;" width="174" x="520.5" y="486.8281"/><text fill="#000000" font-family="sans-serif" font-size="13" font-weight="bold" lengthAdjust="spacing" textLength="124" x="535.5" y="499.895">Process Request</text><line style="stroke:#181818;stroke-width:1.0;stroke-dasharray:2.0,2.0;" x1="558.5" x2="600.5" y1="509.9609" y2="509.9609"/><line style="stroke:#181818;stroke-width:1.0;stroke-dasharray:2.0,2.0;" x1="600.5" x2="600.5" y1="509.9609" y2="522.9609"/><line style="stroke:#181818;stroke-width:1.0;stroke-dasharray:2.0,2.0;" x1="559.5" x2="600.5" y1="522.9609" y2="522.9609"/><polygon fill="#181818" points="569.5,518.9609,559.5,522.9609,569.5,526.9609,565.5,522.9609" style="stroke:#181818;stroke-width:1.0;"/><polygon fill="#181818" points="389.5,555.0938,379.5,559.0938,389.5,563.0938,385.5,559.0938" style="stroke:#181818;stroke-width:1.0;"/><line style="stroke:#181818;stroke-width:1.0;stroke-dasharray:2.0,2.0;" x1="383.5" x2="552.5" y1="559.0938" y2="559.0938"/><text fill="#000000" font-family="sans-serif" font-size="13" lengthAdjust="spacing" textLength="99" x="395.5" y="554.0278">Send Response</text><polygon fill="#181818" points="57.5,584.2266,47.5,588.2266,57.5,592.2266,53.5,588.2266" style="stroke:#181818;stroke-width:1.0;"/><line style="stroke:#181818;stroke-width:1.0;stroke-dasharray:2.0,2.0;" x1="51.5" x2="372.5" y1="588.2266" y2="588.2266"/><text fill="#000000" font-family="sans-serif" font-size="13" lengthAdjust="spacing" textLength="147" x="63.5" y="583.1606">Parse, call onResponse</text><line style="stroke:#000000;stroke-width:1.0;stroke-dasharray:2.0,2.0;" x1="10" x2="704.5" y1="597.2266" y2="597.2266"/><text fill="#000000" font-family="sans-serif" font-size="11" font-weight="bold" lengthAdjust="spacing" textLength="118" x="15" y="607.437">[Request Timeout]</text><polygon fill="#181818" points="52.5,628.1641,42.5,632.1641,52.5,636.1641,48.5,632.1641" style="stroke:#181818;stroke-width:1.0;"/><line style="stroke:#181818;stroke-width:1.0;stroke-dasharray:2.0,2.0;" x1="46.5" x2="372.5" y1="632.1641" y2="632.1641"/><text fill="#000000" font-family="sans-serif" font-size="13" lengthAdjust="spacing" textLength="303" x="58.5" y="627.0981">call onChannelStatusChanged, DISCONNECTED</text><!--MD5=[4a082febbba41824c14f8464f098b05e]
@startuml

POS - -> SDK : Send Request
activate POS
activate SDK

SDK - -> Host : Serialize, Send Request
activate Host

group Wait for response

Host - -> Terminal : Relay Request
activate Terminal

group Process Request
Terminal - -> Terminal
end

Terminal - -> Host : Send Response
deactivate Terminal

Host - -> SDK : Relay Response
deactivate Host

SDK - -> POS : Parse, call onResponse
deactivate SDK


else Request Timeout
SDK - -> POS : call onChannelStatusChanged, DISCONNECTED
deactivate POS
end

== Host to Host No Terminal Requests ==

POS - -> SDK : Send Request
activate POS
activate SDK

SDK - -> Host : Serialize, Send Request
activate Host

group Wait for response

group Process Request
Host - -> Host
end

Host - -> SDK : Send Response
deactivate Host

SDK - -> POS : Parse, call onResponse
deactivate SDK

else Request Timeout
SDK - -> POS : call onChannelStatusChanged, DISCONNECTED
deactivate POS
end

@enduml

PlantUML version 1.2022.6(Tue Jun 21 17:34:49 UTC 2022)
(GPL source distribution)
Java Runtime: OpenJDK Runtime Environment
JVM: OpenJDK 64-Bit Server VM
Default Encoding: ISO-8859-1
Language: en
Country: US
--></g></svg>